<svg xmlns="http://www.w3.org/2000/svg" height="611.73" width="1450.43" id="svg25" version="1.1"><defs id="defs7"><style id="style2">.cls-4{fill:#2ba7f4}.cls-5{fill:#18b2ef}</style><clipPath id="clip-path"><path id="rect4" fill="none" d="M52.18 128.68h1450.43v611.73H52.18z"/></clipPath></defs><g transform="translate(-52.18 -128.68)" data-name="Layer 2" id="Layer_2"><g data-name="Layer 1" id="Layer_1-2"><g id="g21" clip-path="url(#clip-path)"><path id="rect11" fill="#279dfe" d="M52.18 128.68h1450.43v611.73H52.18z"/><path id="path13" d="M899.74 98.67c-38.62-2.15-77.83-4.27-115.57 4.18-37.74 8.45-74.51 29-93.82 62.49-26.07 45.25-15.68 103.46-36.19 151.49-21.77 51-74.14 81.5-125.53 102.23-51.39 20.73-106.56 36.06-149.3 71.34-40.3 33.27-65.42 81-89.75 127.2-14.35 27.28-29.22 55.09-51.95 75.89-34.55 31.61-82.6 43-128.71 51.18-19.77 3.49-40.1 6.6-59.8 2.74-19.7-3.86-38.91-16-45.8-34.9-4.16-11.37-3.51-23.84-2.8-35.92l10-171c3.19-54.7 6.38-109.43 11.72-164 3.25-33.17 7.29-66.36 6.93-99.69-.75-69.35-20.27-141 2.2-206.6z" class="cls-4" fill="#2ba7f4"/><path id="path15" d="M613.24 30.31c-20.88 4.55-37.59 19.88-52 35.63a446.72 446.72 0 0 0-75.66 113.25c-9.5 20.41-17.7 41.94-32.49 58.91-22.38 25.69-56.93 37.43-90.65 42.28-33.72 4.85-68.15 3.88-101.74 9.62-31.16 5.28-61 16.2-90.73 27-21.87 8-45.14 16-68 11.4-11.26-2.3-21.77-7.66-30.92-14.63-28.12-21.48-42.4-56.77-48.69-91.65a280.1 280.1 0 0 1 32-186.59C60.22 25.19 67.1 14.9 77.19 8.59 90.18.47 106.4.14 121.73.09Q341.36-.7 561 5.91" class="cls-5" fill="#18b2ef"/><path id="path17" d="M1568 287.05c-132.3-28.93-268.27-36-403.53-43-76.69-4-153.94-7.9-230 2.8-30.66 4.31-65 14-78.68 41.78-18.41 37.53 11.81 86.72-9.13 122.89-11.12 19.2-33.39 28.43-54.1 36.38L693.21 486c-34.76 13.33-72 28.68-91.29 60.52-18.81 31.07-14.48 74.34 10.1 101.07 21.56 23.45 54.76 33.23 77 56 26.88 27.47 33.51 69 55.56 100.43 24.8 35.4 67.3 55 110 62s86.23 3 129.36.2c88.12-5.77 176.47-6.55 264.78-7.34l327.51-2.9c5.12 0 11.06-.51 14-4.72 1.89-2.73 1.91-6.3 1.86-9.62q-1.21-77.1-2.44-154.21" class="cls-4" fill="#2ba7f4"/><path id="path19" d="M1611.17 349.86c-25.72-5.55-51.91-8.56-78.06-11.57-104.71-12-209.62-24.09-315-26-21.74-.4-43.77-.34-64.81 5.16s-43.7 21.75-41.28 43.43c2.29 20.57 25.79 33 30.63 53.08 3.79 15.74-5.29 32.29-18.06 42.23-12.77 9.94-28.69 14.72-44.11 19.64-24 7.66-48.16 16.37-68.23 31.59-20.07 15.22-35.76 38.05-36.76 63.22-2 49.82 49.9 84.47 65.8 131.73 4.8 14.26 6.22 29.5 11.28 43.66 10.33 28.93 35.36 50.93 63.53 63.2 28.17 12.27 59.36 15.81 90.07 16.63 26.78.71 53.79-.56 79.85-6.77 51.57-12.29 96.42-43 141.76-70.47 45.34-27.47 94.9-52.86 147.91-52.46 22 .16 49 2.58 60.84-15.92" class="cls-5" fill="#18b2ef"/></g></g></g></svg>